<svg width="16" height="9" viewBox="0 0 16 9" fill="none" xmlns="http://www.w3.org/2000/svg">
<path opacity="0.5" fill-rule="evenodd" clip-rule="evenodd" d="M2.11351e-06 1.31718C-0.00021735 1.49201 0.0351189 1.66507 0.103884 1.82581C0.172649 1.98655 0.273399 2.13163 0.399996 2.2522L7.01401 8.58018C7.27417 8.82721 7.61924 8.96494 7.978 8.96494C8.33676 8.96494 8.68182 8.82721 8.94199 8.58018L15.556 2.2522C15.6829 2.13263 15.7842 1.98844 15.8536 1.82847C15.9231 1.6685 15.9592 1.49608 15.9599 1.32169C15.9605 1.14731 15.9257 0.974611 15.8575 0.814124C15.7892 0.653637 15.689 0.508719 15.563 0.38819C15.3032 0.138295 14.9571 -0.00180532 14.5967 -0.00292295C14.2363 -0.00404058 13.8893 0.133899 13.628 0.382178L7.978 5.7822L2.32901 0.382178C2.06709 0.134744 1.72012 -0.00260529 1.3598 -0.00148862C0.999494 -0.000371957 0.653387 0.139137 0.393007 0.38819C0.268409 0.508665 0.169395 0.653038 0.10187 0.812659C0.0343441 0.972281 -0.000311792 1.14386 2.11351e-06 1.31718Z" fill="#C2C0C0"/>
</svg>
