<svg width="16" height="9" viewBox="0 0 16 9" fill="none" xmlns="http://www.w3.org/2000/svg">
<path fill-rule="evenodd" clip-rule="evenodd" d="M0 7.67593C1.12091e-05 7.5007 0.035448 7.32727 0.104187 7.16608C0.172926 7.00488 0.273542 6.85926 0.399994 6.73795L7.02701 0.387939C7.28818 0.141314 7.6338 0.00390625 7.99301 0.00390625C8.35223 0.00390625 8.69784 0.141314 8.95901 0.387939L15.586 6.73795C15.7132 6.85822 15.8147 7.00308 15.8842 7.16376C15.9537 7.32444 15.9899 7.49757 15.9904 7.67264C15.991 7.84771 15.9559 8.0211 15.8875 8.18222C15.819 8.34334 15.7185 8.48884 15.592 8.60992C15.3311 8.85918 14.9845 8.99879 14.6237 8.99991C14.2629 9.00103 13.9154 8.86357 13.653 8.61594L8 3.19095L2.33899 8.61594C2.07657 8.86357 1.72913 9.00103 1.36832 8.99991C1.00751 8.99879 0.660874 8.85918 0.399994 8.60992C0.274027 8.48907 0.173703 8.34409 0.10498 8.18362C0.0362576 8.02316 0.000549116 7.8505 0 7.67593Z" fill="white"/>
</svg>
